<svg width="13" height="12" viewBox="0 0 13 12" fill="none" xmlns="http://www.w3.org/2000/svg">
<path d="M12.3304 4.50037C12.2301 4.1867 11.964 3.95948 11.6433 3.91188L8.39627 3.43224L6.944 0.444227C6.65741 -0.146774 5.70607 -0.146774 5.41947 0.444227L3.96721 3.43224L0.727829 3.91188C0.407321 3.95934 0.14121 4.1875 0.0416793 4.50037C-0.0586342 4.81403 0.0255039 5.15712 0.257699 5.38607L2.60613 7.70619L2.05265 10.9898C1.99825 11.3138 2.12922 11.6422 2.39102 11.8358C2.65374 12.0285 3.0006 12.0536 3.28719 11.9006L6.18141 10.3495L9.08424 11.9006C9.20843 11.9672 9.34448 12 9.47963 12C9.6556 12 9.83157 11.9447 9.98132 11.8359C10.2433 11.6414 10.3741 11.314 10.3197 10.99L9.76622 7.70633L12.1146 5.3862C12.3466 5.15792 12.4307 4.81323 12.3304 4.50037Z" fill="#B6CFE4"/>
</svg>
