<svg width="56" height="64" viewBox="0 0 56 64" fill="none" xmlns="http://www.w3.org/2000/svg">
<path d="M44 20V16C44 7.25 36.75 0 28 0C19.125 0 12 7.25 12 16V20H0V54C0 59.625 4.375 64 10 64H46C51.5 64 56 59.625 56 54V20H44ZM20 16C20 11.625 23.5 8 28 8C32.375 8 36 11.625 36 16V20H20V16ZM40 31C38.25 31 37 29.75 37 28C37 26.375 38.25 25 40 25C41.625 25 43 26.375 43 28C43 29.75 41.625 31 40 31ZM16 31C14.25 31 13 29.75 13 28C13 26.375 14.25 25 16 25C17.625 25 19 26.375 19 28C19 29.75 17.625 31 16 31Z" fill="black"/>
</svg>
