<svg width="57" height="64" viewBox="0 0 57 64" fill="none" xmlns="http://www.w3.org/2000/svg">
<path d="M56.1633 45V3C56.1633 1.375 54.7843 0 53.1545 0H12.035C5.39067 0 0 5.375 0 12V52C0 58.625 5.39067 64 12.035 64H53.1545C54.7843 64 56.1633 62.75 56.1633 61V59C56.1633 58.125 55.6618 57.25 55.035 56.75C54.4082 54.75 54.4082 49.25 55.035 47.375C55.6618 46.875 56.1633 46 56.1633 45ZM16.0466 16.75C16.0466 16.375 16.2974 16 16.7988 16H43.3761C43.7522 16 44.1283 16.375 44.1283 16.75V19.25C44.1283 19.75 43.7522 20 43.3761 20H16.7988C16.2974 20 16.0466 19.75 16.0466 19.25V16.75ZM16.0466 24.75C16.0466 24.375 16.2974 24 16.7988 24H43.3761C43.7522 24 44.1283 24.375 44.1283 24.75V27.25C44.1283 27.75 43.7522 28 43.3761 28H16.7988C16.2974 28 16.0466 27.75 16.0466 27.25V24.75ZM47.7639 56H12.035C9.77843 56 8.02332 54.25 8.02332 52C8.02332 49.875 9.77843 48 12.035 48H47.7639C47.5131 50.25 47.5131 53.875 47.7639 56Z" fill="black"/>
</svg>
